{
  "accessors": [
    {
      "bufferView": 3,
      "componentType": 5126,
      "count": 10619,
      "max": [
        0.34109699726104736,
        1.196341872215271,
        0.33124658465385437
      ],
      "min": [
        -0.34109705686569214,
        -0.025407077744603157,
        -0.32071393728256226
      ],
      "type": "VEC3"
    },
    {
      "bufferView": 3,
      "byteOffset": 127428,
      "componentType": 5126,
      "count": 10619,
      "max": [
        0.99993497133255,
        0.9999997019767761,
        0.9999961256980896
      ],
      "min": [
        -0.99993497133255,
        -0.9999937415122986,
        -0.9999961256980896
      ],
      "type": "VEC3"
    },
    {
      "bufferView": 2,
      "componentType": 5126,
      "count": 10619,
      "max": [
        0.9970632195472717,
        0.9080522656440735
      ],
      "min": [
        0.002935602329671383,
        0.0029344111680984497
      ],
      "type": "VEC2"
    },
    {
      "bufferView": 1,
      "componentType": 5125,
      "count": 56106,
      "type": "SCALAR"
    },
    {
      "bufferView": 3,
      "byteOffset": 254856,
      "componentType": 5126,
      "count": 8694,
      "max": [
        0.3437016010284424,
        1.1989545822143555,
        0.3338077664375305
      ],
      "min": [
        -0.3437016010284424,
        -0.02785436436533928,
        -0.32332685589790344
      ],
      "type": "VEC3"
    },
    {
      "bufferView": 3,
      "byteOffset": 359184,
      "componentType": 5126,
      "count": 8694,
      "max": [
        0.9999251961708069,
        0.9999938607215881,
        0.9999948740005493
      ],
      "min": [
        -0.9999253153800964,
        -0.9999997019767761,
        -0.9999948740005493
      ],
      "type": "VEC3"
    },
    {
      "bufferView": 2,
      "byteOffset": 84952,
      "componentType": 5126,
      "count": 8694,
      "max": [
        0.9970632195472717,
        0.9080522656440735
      ],
      "min": [
        0.002935602329671383,
        0.0029344111680984497
      ],
      "type": "VEC2"
    },
    {
      "bufferView": 1,
      "byteOffset": 224424,
      "componentType": 5125,
      "count": 46674,
      "type": "SCALAR"
    },
    {
      "bufferView": 5,
      "componentType": 5126,
      "count": 28,
      "max": [
        1.0,
        0.8618900775909424,
        0.1897692233324051,
        0.0,
        0.5162093043327332,
        1.0,
        1.000000238418579,
        0.0,
        0.8618903160095215,
        0.7375675439834595,
        1.0,
        0.0,
        0.4125884473323822,
        0.3611309826374054,
        0.13946804404258728,
        1.0
      ],
      "min": [
        -0.9211761951446533,
        -0.8618900775909424,
        -0.18976901471614838,
        0.0,
        -0.5162085890769958,
        -0.9194701910018921,
        -0.7789735794067383,
        0.0,
        -0.8618901968002319,
        -0.5070948600769043,
        -0.9259949922561646,
        0.0,
        -0.41258856654167175,
        -0.5644025802612305,
        -0.5193554162979126,
        1.0
      ],
      "type": "MAT4"
    },
    {
      "bufferView": 0,
      "componentType": 5123,
      "count": 10619,
      "type": "VEC4"
    },
    {
      "bufferView": 4,
      "componentType": 5126,
      "count": 10619,
      "max": [
        1.0,
        0.499881386756897,
        0.32320016622543335,
        0.23400597274303436
      ],
      "min": [
        0.26323583722114563,
        0.0,
        0.0,
        0.0
      ],
      "type": "VEC4"
    },
    {
      "bufferView": 0,
      "byteOffset": 84952,
      "componentType": 5123,
      "count": 8694,
      "type": "VEC4"
    },
    {
      "bufferView": 4,
      "byteOffset": 169904,
      "componentType": 5126,
      "count": 8694,
      "max": [
        1.0,
        0.499881386756897,
        0.32320016622543335,
        0.23400597274303436
      ],
      "min": [
        0.26323583722114563,
        0.0,
        0.0,
        0.0
      ],
      "type": "VEC4"
    }
  ],
  "asset": {
    "extras": {
      "author": "Duznot (https://sketchfab.com/duz_vr)",
      "license": "CC-BY-NC-4.0 (http://creativecommons.org/licenses/by-nc/4.0/)",
      "source": "https://sketchfab.com/3d-models/krillin-677f5f84b46a458d81c3471ef583baa3",
      "title": "Krillin"
    },
    "generator": "Sketchfab-16.0.0",
    "version": "2.0"
  },
  "bufferViews": [
    {
      "buffer": 0,
      "byteLength": 154504,
      "byteStride": 8,
      "name": "shortBufferViews",
      "target": 34962
    },
    {
      "buffer": 0,
      "byteLength": 411120,
      "byteOffset": 154504,
      "name": "floatBufferViews",
      "target": 34963
    },
    {
      "buffer": 0,
      "byteLength": 154504,
      "byteOffset": 565624,
      "byteStride": 8,
      "name": "floatBufferViews",
      "target": 34962
    },
    {
      "buffer": 0,
      "byteLength": 463512,
      "byteOffset": 720128,
      "byteStride": 12,
      "name": "floatBufferViews",
      "target": 34962
    },
    {
      "buffer": 0,
      "byteLength": 309008,
      "byteOffset": 1183640,
      "byteStride": 16,
      "name": "floatBufferViews",
      "target": 34962
    },
    {
      "buffer": 0,
      "byteLength": 1792,
      "byteOffset": 1492648,
      "name": "floatBufferViews"
    }
  ],
  "buffers": [
    {
      "byteLength": 1494440,
      "uri": "scene.bin"
    }
  ],
  "extensionsUsed": [
    "KHR_materials_specular"
  ],
  "images": [
    {
      "uri": "textures/Krillin_baseColor.png"
    },
    {
      "uri": "textures/Krillin_metallicRoughness.png"
    }
  ],
  "materials": [
    {
      "doubleSided": true,
      "emissiveFactor": [
        0.4250174729405542,
        0.4250174729405542,
        0.4250174729405542
      ],
      "emissiveTexture": {
        "index": 0
      },
      "extensions": {
        "KHR_materials_specular": {
          "specularColorFactor": [
            1.0,
            1.0,
            1.0
          ],
          "specularFactor": 0.08028107822210469
        }
      },
      "name": "Krillin",
      "occlusionTexture": {
        "index": 1
      },
      "pbrMetallicRoughness": {
        "baseColorTexture": {
          "index": 0
        },
        "metallicFactor": 0.0,
        "metallicRoughnessTexture": {
          "index": 1
        },
        "roughnessFactor": 0.8040408205773457
      }
    },
    {
      "name": "Outline",
      "pbrMetallicRoughness": {
        "baseColorFactor": [
          0.2628811777076761,
          0.2628811777076761,
          0.2628811777076761,
          1.0
        ],
        "baseColorTexture": {
          "index": 0
        },
        "metallicFactor": 0.0,
        "roughnessFactor": 0.8211145618000169
      }
    }
  ],
  "meshes": [
    {
      "name": "0",
      "primitives": [
        {
          "attributes": {
            "JOINTS_0": 9,
            "NORMAL": 1,
            "POSITION": 0,
            "TEXCOORD_0": 2,
            "WEIGHTS_0": 10
          },
          "indices": 3,
          "material": 0,
          "mode": 4
        }
      ]
    },
    {
      "name": "1",
      "primitives": [
        {
          "attributes": {
            "JOINTS_0": 11,
            "NORMAL": 5,
            "POSITION": 4,
            "TEXCOORD_0": 6,
            "WEIGHTS_0": 12
          },
          "indices": 7,
          "material": 1,
          "mode": 4
        }
      ]
    }
  ],
  "nodes": [
    {
      "children": [
        1
      ],
      "matrix": [
        1.0,
        0.0,
        0.0,
        0.0,
        0.0,
        2.220446049250313e-16,
        -1.0,
        0.0,
        0.0,
        1.0,
        2.220446049250313e-16,
        0.0,
        0.0,
        0.0,
        0.0,
        1.0
      ],
      "name": "Sketchfab_model"
    },
    {
      "children": [
        2
      ],
      "matrix": [
        1.0,
        0.0,
        0.0,
        0.0,
        0.0,
        0.0,
        1.0,
        0.0,
        0.0,
        -1.0,
        0.0,
        0.0,
        0.0,
        0.0,
        0.0,
        1.0
      ],
      "name": "krillin_posed.fbx"
    },
    {
      "children": [
        3
      ],
      "name": "RootNode"
    },
    {
      "children": [
        4
      ],
      "matrix": [
        1.0,
        0.0,
        0.0,
        0.0,
        0.0,
        -1.6292067939183141e-07,
        -0.9999999999999868,
        0.0,
        0.0,
        0.9999999999999868,
        -1.6292067939183141e-07,
        0.0,
        0.0,
        0.0,
        0.0,
        1.0
      ],
      "name": "Armature"
    },
    {
      "children": [
        5,
        34,
        36,
        33,
        35
      ],
      "name": "Object_4"
    },
    {
      "children": [
        6
      ],
      "name": "_rootJoint"
    },
    {
      "children": [
        7,
        25,
        29
      ],
      "name": "Hips_00",
      "rotation": [
        0.7904554009437561,
        7.301802895653964e-08,
        9.422963387351047e-08,
        0.6125196218490601
      ],
      "scale": [
        1.0,
        0.9999998211860657,
        0.9999999403953552
      ],
      "translation": [
        1.7763568394002505e-15,
        0.025869613513350487,
        0.2999471426010132
      ]
    },
    {
      "children": [
        8
      ],
      "name": "Spine_01",
      "rotation": [
        -0.06447306275367737,
        -0.0018745588604360819,
        -0.00986478105187416,
        0.9978689551353455
      ],
      "scale": [
        1.0000001192092896,
        1.0000001192092896,
        1.0000001192092896
      ],
      "translation": [
        -2.751044428069352e-15,
        0.0745483785867691,
        -2.3283064365386963e-09
      ]
    },
    {
      "children": [
        9,
        11,
        18
      ],
      "name": "Chest_02",
      "rotation": [
        -0.09427906572818756,
        0.00675795366987586,
        -0.009343021549284458,
        0.9954790472984314
      ],
      "scale": [
        1.0,
        1.0,
        0.9999999403953552
      ],
      "translation": [
        -4.650351770330019e-10,
        0.06691671907901764,
        -1.0550820661592297e-08
      ]
    },
    {
      "children": [
        10
      ],
      "name": "Neck_03",
      "rotation": [
        0.14870010316371918,
        4.2833797045137886e-16,
        3.5346680249404017e-08,
        0.9888823628425598
      ],
      "scale": [
        1.0,
        0.9999997019767761,
        0.9999998807907104
      ],
      "translation": [
        -1.1677911970764399e-09,
        0.08671984076499939,
        0.0007066012476570904
      ]
    },
    {
      "name": "Head_04",
      "rotation": [
        -0.1516026258468628,
        -0.002680147299543023,
        0.006987642031162977,
        0.9884132146835327
      ],
      "scale": [
        1.0,
        0.9999999403953552,
        1.0
      ],
      "translation": [
        1.3023964129388332e-09,
        0.0405946709215641,
        6.028130883350968e-09
      ]
    },
    {
      "children": [
        12
      ],
      "name": "shoulder.L_05",
      "rotation": [
        -0.6075136065483093,
        -0.29523521661758423,
        -0.32680076360702515,
        0.6610329747200012
      ],
      "scale": [
        1.0,
        1.0000001192092896,
        1.0
      ],
      "translation": [
        0.10139232128858566,
        0.07999972254037857,
        0.025263387709856033
      ]
    },
    {
      "children": [
        13
      ],
      "name": "upper_arm.L_06",
      "rotation": [
        -0.22809547185897827,
        0.7095842361450195,
        -0.44717344641685486,
        0.49446797370910645
      ],
      "scale": [
        1.0000001192092896,
        1.0000003576278687,
        1.000000238418579
      ],
      "translation": [
        0.019235121086239815,
        0.07740794122219086,
        -0.007216657046228647
      ]
    },
    {
      "children": [
        14
      ],
      "name": "forearm.L_07",
      "rotation": [
        -0.04489154368638992,
        0.033344149589538574,
        0.027553465217351913,
        0.9980549812316895
      ],
      "scale": [
        0.9999998807907104,
        1.0000001192092896,
        0.9999999403953552
      ],
      "translation": [
        -7.497146725654602e-08,
        0.08722145855426788,
        -7.450580596923828e-09
      ]
    },
    {
      "children": [
        15,
        16,
        17
      ],
      "name": "hand.L_08",
      "rotation": [
        -0.08563443273305893,
        0.06170082837343216,
        -0.07560271769762039,
        0.9915362000465393
      ],
      "scale": [
        1.0,
        0.9999999403953552,
        1.0
      ],
      "translation": [
        3.4924596548080444e-08,
        0.09835837781429291,
        -7.450580596923828e-09
      ]
    },
    {
      "name": "f_index.01.L_09",
      "rotation": [
        0.16321377456188202,
        0.7478753328323364,
        -0.010107727721333504,
        0.6433829069137573
      ],
      "scale": [
        1.0,
        1.000000238418579,
        0.9999999403953552
      ],
      "translation": [
        -0.023264385759830475,
        0.10019207000732422,
        0.02106672152876854
      ]
    },
    {
      "name": "thumb.01.L_010",
      "rotation": [
        0.0004687357577495277,
        0.9423834085464478,
        0.3054561913013458,
        -0.1364179253578186
      ],
      "scale": [
        1.0,
        0.9999998807907104,
        1.0000001192092896
      ],
      "translation": [
        -0.0003772228956222534,
        0.028524531051516533,
        0.029116880148649216
      ]
    },
    {
      "name": "f_middle.01.L_011",
      "rotation": [
        0.20415665209293365,
        0.7204427123069763,
        -0.015758192166686058,
        0.6625964641571045
      ],
      "scale": [
        1.0,
        1.0000001192092896,
        1.0000001192092896
      ],
      "translation": [
        -0.012677468359470367,
        0.10182024538516998,
        0.0024100132286548615
      ]
    },
    {
      "children": [
        19
      ],
      "name": "shoulder.R_012",
      "rotation": [
        -0.6296013593673706,
        0.2900621294975281,
        0.29837730526924133,
        0.6560770273208618
      ],
      "scale": [
        1.0,
        0.9999999403953552,
        1.0
      ],
      "translation": [
        -0.10139232128858566,
        0.07999970763921738,
        0.025263337418437004
      ]
    },
    {
      "children": [
        20
      ],
      "name": "upper_arm.R_013",
      "rotation": [
        -0.28434568643569946,
        -0.6854697465896606,
        0.4239210784435272,
        0.5192009806632996
      ],
      "scale": [
        1.0000001192092896,
        1.0000003576278687,
        1.0000001192092896
      ],
      "translation": [
        -0.01923515647649765,
        0.07740794122219086,
        -0.00721672223880887
      ]
    },
    {
      "children": [
        21
      ],
      "name": "forearm.R_014",
      "rotation": [
        -0.044891443103551865,
        -0.03334461525082588,
        -0.027553996071219444,
        0.9980550408363342
      ],
      "translation": [
        -7.450580596923828e-09,
        0.08722147345542908,
        5.587935447692871e-09
      ]
    },
    {
      "children": [
        22,
        23,
        24
      ],
      "name": "hand.R_015",
      "rotation": [
        -0.08563440293073654,
        -0.06169991195201874,
        0.07560387998819351,
        0.9915361404418945
      ],
      "scale": [
        1.0,
        1.0,
        0.9999999403953552
      ],
      "translation": [
        1.862645149230957e-09,
        0.09835848212242126,
        -1.4901161193847656e-08
      ]
    },
    {
      "name": "f_index.01.R_016",
      "rotation": [
        0.1632133573293686,
        -0.7478756308555603,
        0.010107475332915783,
        0.6433826684951782
      ],
      "scale": [
        0.9999999403953552,
        0.9999998807907104,
        0.9999999403953552
      ],
      "translation": [
        0.02326446957886219,
        0.10019198060035706,
        0.02106667309999466
      ]
    },
    {
      "name": "thumb.01.R_017",
      "rotation": [
        -0.0004684598243329674,
        0.9423834085464478,
        0.3054559826850891,
        0.13641837239265442
      ],
      "scale": [
        1.0,
        1.000000238418579,
        0.9999999403953552
      ],
      "translation": [
        0.0003771921619772911,
        0.02852449007332325,
        0.02911684289574623
      ]
    },
    {
      "name": "f_middle.01.R_018",
      "rotation": [
        0.2041560858488083,
        -0.7204431295394897,
        0.015758013352751732,
        0.6625961661338806
      ],
      "scale": [
        0.9999999403953552,
        1.0,
        0.9999999403953552
      ],
      "translation": [
        0.012677604332566261,
        0.10182008147239685,
        0.0024099722504615784
      ]
    },
    {
      "children": [
        26
      ],
      "name": "thigh.L_019",
      "rotation": [
        0.9399505257606506,
        0.11763323098421097,
        0.028177868574857712,
        0.3191576898097992
      ],
      "scale": [
        1.0,
        1.000000238418579,
        1.0000003576278687
      ],
      "translation": [
        0.08976925909519196,
        -0.023687927052378654,
        0.032243821769952774
      ]
    },
    {
      "children": [
        27
      ],
      "name": "shin.L_020",
      "rotation": [
        0.4327738285064697,
        -0.10156481713056564,
        0.034643158316612244,
        0.8950928449630737
      ],
      "scale": [
        1.0,
        1.0000001192092896,
        1.000000238418579
      ],
      "translation": [
        3.026798367500305e-09,
        0.12833915650844574,
        4.6566128730773926e-09
      ]
    },
    {
      "children": [
        28
      ],
      "name": "foot.L_021",
      "rotation": [
        -0.6045010685920715,
        -0.16103605926036835,
        -0.12622761726379395,
        0.7698782086372375
      ],
      "scale": [
        0.9999999403953552,
        0.9999999403953552,
        0.9999998807907104
      ],
      "translation": [
        3.3760443329811096e-09,
        0.12741465866565704,
        2.468004822731018e-08
      ]
    },
    {
      "name": "toe.L_022",
      "rotation": [
        0.055615782737731934,
        0.9414848685264587,
        -0.27001431584358215,
        0.19392099976539612
      ],
      "scale": [
        1.0,
        0.9999998211860657,
        1.0
      ],
      "translation": [
        3.189779818058014e-08,
        0.09130688011646271,
        -1.6763806343078613e-08
      ]
    },
    {
      "children": [
        30
      ],
      "name": "thigh.R_023",
      "rotation": [
        0.9416252374649048,
        -0.12134840339422226,
        0.023410271853208542,
        0.3131588101387024
      ],
      "scale": [
        1.0,
        1.000000238418579,
        1.0000005960464478
      ],
      "translation": [
        -0.08976927399635315,
        -0.023687954992055893,
        0.032243795692920685
      ]
    },
    {
      "children": [
        31
      ],
      "name": "shin.R_024",
      "rotation": [
        0.4209514558315277,
        0.028988707810640335,
        -0.03255251422524452,
        0.9060352444648743
      ],
      "scale": [
        1.0000001192092896,
        1.000000238418579,
        1.0000001192092896
      ],
      "translation": [
        1.4668330550193787e-08,
        0.12833917140960693,
        8.847564458847046e-09
      ]
    },
    {
      "children": [
        32
      ],
      "name": "foot.R_025",
      "rotation": [
        -0.6463096141815186,
        0.0184007715433836,
        0.11552159488201141,
        0.7540557384490967
      ],
      "scale": [
        0.9999997615814209,
        0.9999997019767761,
        0.9999995827674866
      ],
      "translation": [
        -2.9103830456733704e-09,
        0.12741459906101227,
        -6.984919309616089e-09
      ]
    },
    {
      "name": "toe.R_026",
      "rotation": [
        -0.05561576411128044,
        0.9414848685264587,
        -0.27001437544822693,
        -0.19392111897468567
      ],
      "scale": [
        0.9999999403953552,
        0.9999998211860657,
        0.9999997615814209
      ],
      "translation": [
        -2.10711732506752e-08,
        0.0913068950176239,
        3.777677193284035e-08
      ]
    },
    {
      "matrix": [
        1.0000000000000568,
        4.601769595568227e-16,
        -4.447457874391268e-15,
        0.0,
        -4.447458011546182e-15,
        9.005972413309156e-10,
        -1.0000000307458183,
        0.0,
        -4.601769696999218e-16,
        1.0000000307457668,
        9.005972413308692e-10,
        0.0,
        0.0,
        -1.145459160856177e-08,
        3.4778976920613047e-09,
        1.0
      ],
      "name": "Object_33"
    },
    {
      "mesh": 0,
      "name": "Object_34",
      "skin": 0
    },
    {
      "matrix": [
        1.0000000000000568,
        4.601769595568227e-16,
        -4.447457874391268e-15,
        0.0,
        -4.447458011546182e-15,
        9.005972413309156e-10,
        -1.0000000307458183,
        0.0,
        -4.601769696999218e-16,
        1.0000000307457668,
        9.005972413308692e-10,
        0.0,
        0.0,
        -1.145459160856177e-08,
        3.4778976920613047e-09,
        1.0
      ],
      "name": "Object_35"
    },
    {
      "mesh": 1,
      "name": "Object_36",
      "skin": 0
    }
  ],
  "samplers": [
    {
      "magFilter": 9729,
      "minFilter": 9987,
      "wrapS": 10497,
      "wrapT": 10497
    }
  ],
  "scene": 0,
  "scenes": [
    {
      "name": "Sketchfab_Scene",
      "nodes": [
        0
      ]
    }
  ],
  "skins": [
    {
      "inverseBindMatrices": 8,
      "joints": [
        5,
        6,
        7,
        8,
        9,
        10,
        11,
        12,
        13,
        14,
        15,
        16,
        17,
        18,
        19,
        20,
        21,
        22,
        23,
        24,
        25,
        26,
        27,
        28,
        29,
        30,
        31,
        32
      ],
      "skeleton": 5
    }
  ],
  "textures": [
    {
      "sampler": 0,
      "source": 0
    },
    {
      "sampler": 0,
      "source": 1
    }
  ]
}
